<svg width="44" height="44" viewBox="0 0 44 44" fill="none" xmlns="http://www.w3.org/2000/svg">
<path d="M29.3855 22L42.954 8.43152C44.3487 7.03683 44.3487 4.77563 42.954 3.38093L40.6191 1.04602C39.2244 -0.348674 36.9632 -0.348674 35.5685 1.04602L22 14.6145L8.43152 1.04602C7.03683 -0.348674 4.77563 -0.348674 3.38093 1.04602L1.04602 3.38093C-0.348674 4.77563 -0.348674 7.03683 1.04602 8.43152L14.6145 22L1.04602 35.5685C-0.348674 36.9632 -0.348674 39.2244 1.04602 40.6191L3.38093 42.954C4.77563 44.3487 7.03683 44.3487 8.43152 42.954L22 29.3855L35.5685 42.954C36.9632 44.3487 39.2244 44.3487 40.6191 42.954L42.954 40.6191C44.3487 39.2244 44.3487 36.9632 42.954 35.5685L29.3855 22Z" fill="#FF473E"/>
</svg>
