<svg width="32" height="32" viewBox="0 0 32 32" fill="none" xmlns="http://www.w3.org/2000/svg">
<path d="M22.6667 5H4C2.93913 5 1.92172 5.42143 1.17157 6.17157C0.421427 6.92172 0 7.93913 0 9V22.3333C0 23.3942 0.421427 24.4116 1.17157 25.1618C1.92172 25.9119 2.93913 26.3333 4 26.3333H22.6667C23.7275 26.3333 24.7449 25.9119 25.4951 25.1618C26.2452 24.4116 26.6667 23.3942 26.6667 22.3333V9C26.6667 7.93913 26.2452 6.92172 25.4951 6.17157C24.7449 5.42143 23.7275 5 22.6667 5ZM21.7733 7.66667L13.3333 14L4.89333 7.66667H21.7733ZM22.6667 23.6667H4C3.64638 23.6667 3.30724 23.5262 3.05719 23.2761C2.80714 23.0261 2.66667 22.687 2.66667 22.3333V9.33333L12.5333 16.7333C12.7641 16.9064 13.0448 17 13.3333 17C13.6218 17 13.9025 16.9064 14.1333 16.7333L24 9.33333V22.3333C24 22.687 23.8595 23.0261 23.6095 23.2761C23.3594 23.5262 23.0203 23.6667 22.6667 23.6667Z" fill="#231F20"/>
</svg>
