<svg width="39" height="39" viewBox="0 0 39 39" fill="none" xmlns="http://www.w3.org/2000/svg">
<path d="M19.5 3.25C16.2861 3.25 13.1443 4.20305 10.472 5.98862C7.79969 7.77419 5.71689 10.3121 4.48696 13.2814C3.25704 16.2507 2.93524 19.518 3.56225 22.6702C4.18926 25.8224 5.73692 28.7179 8.00952 30.9905C10.2821 33.2631 13.1776 34.8108 16.3298 35.4378C19.482 36.0648 22.7493 35.743 25.7186 34.513C28.6879 33.2831 31.2258 31.2003 33.0114 28.528C34.797 25.8557 35.75 22.7139 35.75 19.5C35.75 17.366 35.3297 15.2529 34.513 13.2814C33.6964 11.3099 32.4994 9.51847 30.9905 8.00951C29.4815 6.50056 27.6902 5.3036 25.7186 4.48696C23.7471 3.67032 21.634 3.25 19.5 3.25ZM19.5 32.5C16.9289 32.5 14.4154 31.7376 12.2776 30.3091C10.1398 28.8806 8.47351 26.8503 7.48957 24.4749C6.50563 22.0994 6.24819 19.4856 6.7498 16.9638C7.25141 14.4421 8.48954 12.1257 10.3076 10.3076C12.1257 8.48953 14.4421 7.2514 16.9638 6.74979C19.4856 6.24818 22.0995 6.50563 24.4749 7.48957C26.8503 8.47351 28.8806 10.1397 30.3091 12.2776C31.7376 14.4154 32.5 16.9288 32.5 19.5C32.5 22.9478 31.1304 26.2544 28.6924 28.6924C26.2544 31.1304 22.9478 32.5 19.5 32.5Z" fill="white"/>
<path d="M19.5 14.625C20.3975 14.625 21.125 13.8975 21.125 13C21.125 12.1025 20.3975 11.375 19.5 11.375C18.6025 11.375 17.875 12.1025 17.875 13C17.875 13.8975 18.6025 14.625 19.5 14.625Z" fill="white"/>
<path d="M19.5 16.25C19.069 16.25 18.6557 16.4212 18.351 16.726C18.0462 17.0307 17.875 17.444 17.875 17.875V26C17.875 26.431 18.0462 26.8443 18.351 27.149C18.6557 27.4538 19.069 27.625 19.5 27.625C19.931 27.625 20.3443 27.4538 20.649 27.149C20.9538 26.8443 21.125 26.431 21.125 26V17.875C21.125 17.444 20.9538 17.0307 20.649 16.726C20.3443 16.4212 19.931 16.25 19.5 16.25Z" fill="white"/>
</svg>
