<svg width="101" height="96" viewBox="0 0 101 96" fill="none" xmlns="http://www.w3.org/2000/svg">
<path d="M90.2602 48.1301L40.2307 48.1301M79.7276 63.9289L95.5264 48.1301L79.7276 32.3313M53.3963 21.7988V16.5325C53.3963 13.7391 52.2867 11.0601 50.3114 9.0849C48.3362 7.10967 45.6572 6 42.8638 6L16.5325 6C13.7391 6 11.0601 7.10967 9.0849 9.0849C7.10967 11.0601 6 13.7391 6 16.5325L6 79.7276C6 82.521 7.10967 85.2 9.0849 87.1753C11.0601 89.1505 13.7391 90.2602 16.5325 90.2602L42.8638 90.2602C45.6572 90.2602 48.3362 89.1505 50.3114 87.1753C52.2867 85.2 53.3963 82.521 53.3963 79.7276V74.4614" stroke="#4A39B5" stroke-width="10.5325" stroke-linecap="round" stroke-linejoin="round"/>
</svg>
