<svg width="38" height="38" viewBox="0 0 38 38" fill="none" xmlns="http://www.w3.org/2000/svg">
<path d="M18.844 18.844C19.7113 18.844 20.4143 18.1409 20.4143 17.2736C20.4143 16.4064 19.7113 15.7033 18.844 15.7033C17.9767 15.7033 17.2737 16.4064 17.2737 17.2736C17.2737 18.1409 17.9767 18.844 18.844 18.844Z" fill="#4A39B5"/>
<path d="M25.1253 18.844C25.9925 18.844 26.6956 18.1409 26.6956 17.2736C26.6956 16.4064 25.9925 15.7033 25.1253 15.7033C24.258 15.7033 23.5549 16.4064 23.5549 17.2736C23.5549 18.1409 24.258 18.844 25.1253 18.844Z" fill="#4A39B5"/>
<path d="M12.5626 18.844C13.4299 18.844 14.133 18.1409 14.133 17.2736C14.133 16.4064 13.4299 15.7033 12.5626 15.7033C11.6954 15.7033 10.9923 16.4064 10.9923 17.2736C10.9923 18.1409 11.6954 18.844 12.5626 18.844Z" fill="#4A39B5"/>
<path d="M29.8363 4.711H7.85162C6.60219 4.711 5.40393 5.20733 4.52044 6.09082C3.63696 6.9743 3.14063 8.17256 3.14062 9.422V32.977C3.1411 33.2552 3.21551 33.5284 3.35623 33.7684C3.49695 34.0085 3.69893 34.2068 3.94149 34.3432C4.17619 34.4762 4.44119 34.5465 4.71096 34.5473C4.99281 34.5472 5.26944 34.4713 5.51183 34.3275L12.5626 30.0562C12.8232 29.901 13.1232 29.8247 13.4263 29.8363H29.8363C31.0857 29.8363 32.284 29.34 33.1675 28.4565C34.0509 27.573 34.5473 26.3748 34.5473 25.1253V9.422C34.5473 8.17256 34.0509 6.9743 33.1675 6.09082C32.284 5.20733 31.0857 4.711 29.8363 4.711ZM31.4066 25.1253C31.4066 25.5418 31.2412 25.9412 30.9467 26.2357C30.6522 26.5302 30.2528 26.6957 29.8363 26.6957H13.4263C12.5686 26.695 11.727 26.9285 10.9923 27.3709L6.28129 30.1975V9.422C6.28129 9.00552 6.44674 8.6061 6.74123 8.3116C7.03573 8.01711 7.43514 7.85166 7.85162 7.85166H29.8363C30.2528 7.85166 30.6522 8.01711 30.9467 8.3116C31.2412 8.6061 31.4066 9.00552 31.4066 9.422V25.1253Z" fill="#4A39B5"/>
</svg>
