<svg width="31" height="31" viewBox="0 0 31 31" fill="none" xmlns="http://www.w3.org/2000/svg">
<path d="M23.25 10.3333H25.8333C26.1759 10.3333 26.5044 10.4694 26.7467 10.7117C26.9889 10.9539 27.125 11.2824 27.125 11.625V27.125C27.125 27.4676 26.9889 27.7961 26.7467 28.0384C26.5044 28.2806 26.1759 28.4167 25.8333 28.4167H5.16667C4.8241 28.4167 4.49555 28.2806 4.25332 28.0384C4.01109 27.7961 3.875 27.4676 3.875 27.125V11.625C3.875 11.2824 4.01109 10.9539 4.25332 10.7117C4.49555 10.4694 4.8241 10.3333 5.16667 10.3333H7.75V9.04167C7.75 6.98624 8.56652 5.015 10.0199 3.56159C11.4733 2.10819 13.4446 1.29167 15.5 1.29167C17.5554 1.29167 19.5267 2.10819 20.9801 3.56159C22.4335 5.015 23.25 6.98624 23.25 9.04167V10.3333ZM6.45833 12.9167V25.8333H24.5417V12.9167H6.45833ZM14.2083 18.0833H16.7917V20.6667H14.2083V18.0833ZM9.04167 18.0833H11.625V20.6667H9.04167V18.0833ZM19.375 18.0833H21.9583V20.6667H19.375V18.0833ZM20.6667 10.3333V9.04167C20.6667 7.67139 20.1223 6.35722 19.1534 5.38829C18.1844 4.41935 16.8703 3.87501 15.5 3.87501C14.1297 3.87501 12.8156 4.41935 11.8466 5.38829C10.8777 6.35722 10.3333 7.67139 10.3333 9.04167V10.3333H20.6667Z" fill="black"/>
</svg>
