<svg width="37" height="37" viewBox="0 0 37 37" fill="none" xmlns="http://www.w3.org/2000/svg">
<path fill-rule="evenodd" clip-rule="evenodd" d="M25.2273 13.4545C25.2273 17.1698 22.2153 20.1818 18.5 20.1818C14.7847 20.1818 11.7728 17.1698 11.7728 13.4545C11.7728 9.73917 14.7847 6.72726 18.5 6.72726C22.2153 6.72726 25.2273 9.73917 25.2273 13.4545ZM21.8637 13.4545C21.8637 15.3123 20.3578 16.8182 18.5 16.8182C16.6423 16.8182 15.1364 15.3123 15.1364 13.4545C15.1364 11.5969 16.6423 10.0909 18.5 10.0909C20.3578 10.0909 21.8637 11.5969 21.8637 13.4545Z" fill="#4A39B5"/>
<path fill-rule="evenodd" clip-rule="evenodd" d="M18.5 0C8.28274 0 0 8.28274 0 18.5C0 28.7172 8.28274 37 18.5 37C28.7172 37 37 28.7172 37 18.5C37 8.28274 28.7172 0 18.5 0ZM3.36364 18.5C3.36364 22.0153 4.56202 25.2508 6.57251 27.8201C9.33821 24.1995 13.7005 21.8636 18.6085 21.8636C23.4526 21.8636 27.7655 24.1393 30.5359 27.6799C32.481 25.1336 33.6364 21.9518 33.6364 18.5C33.6364 10.1404 26.8596 3.36364 18.5 3.36364C10.1404 3.36364 3.36364 10.1404 3.36364 18.5ZM18.5 33.6364C14.8837 33.6364 11.5636 32.3681 8.96017 30.2522C11.0891 27.2138 14.6168 25.2273 18.6085 25.2273C22.5505 25.2273 26.0401 27.1649 28.1768 30.1397C25.5534 32.323 22.18 33.6364 18.5 33.6364Z" fill="#4A39B5"/>
</svg>
