<svg width="90" height="90" viewBox="0 0 90 90" fill="none" xmlns="http://www.w3.org/2000/svg">
<path d="M79.6673 32.2407C73.311 25.8843 64.8899 22.3816 55.954 22.3816H21.4192L35.8889 7.9119L27.977 0L0 27.977L27.977 55.954L35.8889 48.0421L21.4192 33.5724H55.954C61.9019 33.5724 67.5141 35.9113 71.7554 40.1526C75.9967 44.3939 78.3356 50.0061 78.3356 55.954C78.3356 61.9019 75.9967 67.5141 71.7554 71.7554C67.5141 75.9967 61.9019 78.3356 55.954 78.3356H33.5724V89.5264H55.954C64.8899 89.5264 73.311 86.0237 79.6673 79.6673C86.0237 73.311 89.5264 64.8899 89.5264 55.954C89.5264 47.0182 86.0237 38.5971 79.6673 32.2407Z" fill="#4A39B5"/>
</svg>
