<svg width="45" height="46" viewBox="0 0 45 46" fill="none" xmlns="http://www.w3.org/2000/svg">
<path d="M41.7857 17.9879H27.3214V3.27054C27.3214 1.46459 25.882 0 24.1071 0H20.8929C19.118 0 17.6786 1.46459 17.6786 3.27054V17.9879H3.21429C1.4394 17.9879 0 19.4525 0 21.2585V24.529C0 26.335 1.4394 27.7996 3.21429 27.7996H17.6786V42.517C17.6786 44.3229 19.118 45.7875 20.8929 45.7875H24.1071C25.882 45.7875 27.3214 44.3229 27.3214 42.517V27.7996H41.7857C43.5606 27.7996 45 26.335 45 24.529V21.2585C45 19.4525 43.5606 17.9879 41.7857 17.9879Z" fill="white"/>
</svg>
