<svg width="60" height="60" viewBox="0 0 60 60" fill="none" xmlns="http://www.w3.org/2000/svg">
<path fill-rule="evenodd" clip-rule="evenodd" d="M40.909 21.8182C40.909 27.843 36.0247 32.7273 29.9999 32.7273C23.975 32.7273 19.0908 27.843 19.0908 21.8182C19.0908 15.7933 23.975 10.9091 29.9999 10.9091C36.0247 10.9091 40.909 15.7933 40.909 21.8182ZM35.4545 21.8182C35.4545 24.8307 33.0125 27.2727 29.9999 27.2727C26.9874 27.2727 24.5454 24.8307 24.5454 21.8182C24.5454 18.8057 26.9874 16.3636 29.9999 16.3636C33.0125 16.3636 35.4545 18.8057 35.4545 21.8182Z" fill="#4A39B5"/>
<path fill-rule="evenodd" clip-rule="evenodd" d="M30 0C13.4315 0 0 13.4315 0 30C0 46.5685 13.4315 60 30 60C46.5685 60 60 46.5685 60 30C60 13.4315 46.5685 0 30 0ZM5.45455 30C5.45455 35.7005 7.39786 40.9473 10.6581 45.1137C15.143 39.2425 22.2171 35.4545 30.1759 35.4545C38.0313 35.4545 45.0251 39.1448 49.5177 44.8863C52.6718 40.7572 54.5455 35.5975 54.5455 30C54.5455 16.4439 43.5562 5.45455 30 5.45455C16.4439 5.45455 5.45455 16.4439 5.45455 30ZM30 54.5455C24.1357 54.5455 18.7518 52.4888 14.53 49.0576C17.9823 44.1305 23.7029 40.9091 30.1759 40.9091C36.5684 40.9091 42.2272 44.0512 45.6922 48.8752C41.4379 52.4157 35.9675 54.5455 30 54.5455Z" fill="#4A39B5"/>
</svg>
